<svg width="183" height="56" viewBox="0 0 183 56" fill="none" xmlns="http://www.w3.org/2000/svg">
<rect x="0.398438" y="0.897583" width="182.495" height="54.7486" rx="27.3743" fill="#2EC114"/>
<g clip-path="url(#clip0_8_1784)">
<path d="M27.7727 46.5214C32.6128 46.5214 37.2546 44.5987 40.6771 41.1763C44.0995 37.7538 46.0223 33.112 46.0223 28.2719C46.0223 23.4318 44.0995 18.79 40.6771 15.3675C37.2546 11.9451 32.6128 10.0224 27.7727 10.0224C22.9327 10.0224 18.2908 11.9451 14.8684 15.3675C11.4459 18.79 9.52319 23.4318 9.52319 28.2719C9.52319 33.112 11.4459 37.7538 14.8684 41.1763C18.2908 44.5987 22.9327 46.5214 27.7727 46.5214ZM35.8282 24.9214L26.7034 34.0462C26.0333 34.7163 24.9498 34.7163 24.2868 34.0462L19.7244 29.4838C19.0543 28.8137 19.0543 27.7301 19.7244 27.0671C20.3945 26.4042 21.4781 26.397 22.141 27.0671L25.4915 30.4176L33.4044 22.4976C34.0745 21.8275 35.1581 21.8275 35.8211 22.4976C36.484 23.1677 36.4912 24.2513 35.8211 24.9143L35.8282 24.9214Z" fill="white"/>
</g>
<path d="M69.0155 24.6443H66.107C66.024 24.1673 65.8711 23.7448 65.6482 23.3767C65.4252 23.0034 65.1478 22.6871 64.816 22.4279C64.4842 22.1687 64.1058 21.9743 63.6806 21.8447C63.2607 21.7099 62.807 21.6425 62.3197 21.6425C61.4539 21.6425 60.6866 21.8602 60.0178 22.2957C59.349 22.726 58.8253 23.3585 58.4468 24.1932C58.0684 25.0228 57.8791 26.0363 57.8791 27.234C57.8791 28.4523 58.0684 29.4789 58.4468 30.3136C58.8305 31.1431 59.3541 31.7704 60.0178 32.1956C60.6866 32.6155 61.4513 32.8255 62.3119 32.8255C62.7889 32.8255 63.2348 32.7633 63.6495 32.6388C64.0695 32.5092 64.4453 32.32 64.7772 32.0711C65.1141 31.8223 65.3967 31.5164 65.6248 31.1535C65.8581 30.7906 66.0188 30.3758 66.107 29.9092L69.0155 29.9247C68.9066 30.6817 68.6707 31.392 68.3078 32.0556C67.9501 32.7192 67.4809 33.305 66.9002 33.8131C66.3195 34.316 65.6404 34.7101 64.8627 34.9952C64.085 35.2752 63.2218 35.4151 62.273 35.4151C60.8732 35.4151 59.6237 35.0911 58.5246 34.4431C57.4255 33.795 56.5597 32.8592 55.9272 31.6356C55.2947 30.4121 54.9784 28.9449 54.9784 27.234C54.9784 25.5179 55.2972 24.0507 55.9349 22.8323C56.5726 21.6088 57.441 20.6729 58.5402 20.0249C59.6393 19.3768 60.8836 19.0528 62.273 19.0528C63.1596 19.0528 63.9839 19.1772 64.746 19.4261C65.5082 19.6749 66.1873 20.0404 66.7836 20.5226C67.3798 20.9996 67.8697 21.5854 68.2534 22.2802C68.6422 22.9697 68.8963 23.7577 69.0155 24.6443ZM76.7437 35.4307C75.5772 35.4307 74.5662 35.1741 73.7107 34.6608C72.8553 34.1475 72.1917 33.4295 71.7199 32.5066C71.2533 31.5838 71.02 30.5054 71.02 29.2715C71.02 28.0376 71.2533 26.9566 71.7199 26.0286C72.1917 25.1005 72.8553 24.3799 73.7107 23.8666C74.5662 23.3533 75.5772 23.0967 76.7437 23.0967C77.9102 23.0967 78.9212 23.3533 79.7766 23.8666C80.6321 24.3799 81.2931 25.1005 81.7597 26.0286C82.2315 26.9566 82.4674 28.0376 82.4674 29.2715C82.4674 30.5054 82.2315 31.5838 81.7597 32.5066C81.2931 33.4295 80.6321 34.1475 79.7766 34.6608C78.9212 35.1741 77.9102 35.4307 76.7437 35.4307ZM76.7592 33.1754C77.3918 33.1754 77.9206 33.0018 78.3457 32.6544C78.7708 32.3018 79.0871 31.83 79.2945 31.239C79.507 30.648 79.6133 29.9895 79.6133 29.2637C79.6133 28.5327 79.507 27.8717 79.2945 27.2806C79.0871 26.6844 78.7708 26.21 78.3457 25.8575C77.9206 25.5049 77.3918 25.3287 76.7592 25.3287C76.1112 25.3287 75.572 25.5049 75.1417 25.8575C74.7165 26.21 74.3977 26.6844 74.1851 27.2806C73.9777 27.8717 73.8741 28.5327 73.8741 29.2637C73.8741 29.9895 73.9777 30.648 74.1851 31.239C74.3977 31.83 74.7165 32.3018 75.1417 32.6544C75.572 33.0018 76.1112 33.1754 76.7592 33.1754ZM87.672 28.1983V35.1974H84.8568V23.2522H87.5476V25.282H87.6876C87.9624 24.6132 88.4004 24.0818 89.0019 23.6877C89.6084 23.2937 90.3576 23.0967 91.2493 23.0967C92.0737 23.0967 92.7917 23.273 93.4035 23.6255C94.0205 23.9781 94.4975 24.4888 94.8344 25.1576C95.1766 25.8264 95.3451 26.6377 95.3399 27.5917V35.1974H92.5247V28.0272C92.5247 27.2288 92.3174 26.604 91.9026 26.153C91.493 25.7019 90.9253 25.4764 90.1995 25.4764C89.7069 25.4764 89.2689 25.5853 88.8852 25.803C88.5067 26.0156 88.2086 26.3241 87.9909 26.7285C87.7783 27.1329 87.672 27.6228 87.672 28.1983ZM104.252 23.2522V25.4298H97.1908V23.2522H104.252ZM98.9561 35.1974V22.1246C98.9561 21.321 99.1221 20.6522 99.4539 20.1182C99.7909 19.5842 100.242 19.185 100.807 18.9206C101.372 18.6562 101.999 18.524 102.689 18.524C103.176 18.524 103.609 18.5628 103.988 18.6406C104.366 18.7184 104.646 18.7884 104.828 18.8506L104.268 21.0281C104.148 20.9918 103.998 20.9555 103.817 20.9192C103.635 20.8777 103.433 20.857 103.21 20.857C102.686 20.857 102.316 20.984 102.098 21.2381C101.885 21.4869 101.779 21.8446 101.779 22.3113V35.1974H98.9561ZM106.457 35.1974V23.2522H109.272V35.1974H106.457ZM107.872 21.5569C107.426 21.5569 107.043 21.4092 106.721 21.1136C106.4 20.8129 106.239 20.4526 106.239 20.0327C106.239 19.6075 106.4 19.2472 106.721 18.9517C107.043 18.651 107.426 18.5006 107.872 18.5006C108.323 18.5006 108.707 18.651 109.023 18.9517C109.345 19.2472 109.505 19.6075 109.505 20.0327C109.505 20.4526 109.345 20.8129 109.023 21.1136C108.707 21.4092 108.323 21.5569 107.872 21.5569ZM112.167 35.1974V23.2522H114.897V25.2431H115.021C115.239 24.5536 115.612 24.0222 116.141 23.6489C116.675 23.2704 117.284 23.0812 117.968 23.0812C118.124 23.0812 118.298 23.0889 118.489 23.1045C118.687 23.1149 118.85 23.133 118.979 23.1589V25.7486C118.86 25.7071 118.671 25.6708 118.412 25.6397C118.158 25.6034 117.911 25.5853 117.673 25.5853C117.16 25.5853 116.698 25.6968 116.289 25.9197C115.884 26.1374 115.565 26.4407 115.332 26.8296C115.099 27.2184 114.982 27.6669 114.982 28.175V35.1974H112.167ZM120.85 35.1974V23.2522H123.541V25.282H123.681C123.929 24.5976 124.342 24.0636 124.917 23.68C125.493 23.2911 126.179 23.0967 126.978 23.0967C127.787 23.0967 128.468 23.2937 129.023 23.6877C129.583 24.0766 129.977 24.608 130.205 25.282H130.33C130.594 24.6184 131.04 24.0896 131.667 23.6955C132.3 23.2963 133.049 23.0967 133.915 23.0967C135.014 23.0967 135.911 23.4441 136.606 24.1388C137.3 24.8335 137.648 25.8471 137.648 27.1795V35.1974H134.825V27.615C134.825 26.8736 134.628 26.3319 134.234 25.9897C133.84 25.6423 133.357 25.4686 132.787 25.4686C132.108 25.4686 131.577 25.6812 131.193 26.1063C130.814 26.5263 130.625 27.0732 130.625 27.7472V35.1974H127.864V27.4984C127.864 26.8814 127.678 26.3889 127.304 26.0208C126.936 25.6527 126.454 25.4686 125.858 25.4686C125.454 25.4686 125.086 25.5723 124.754 25.7797C124.422 25.9819 124.157 26.2696 123.96 26.6429C123.763 27.011 123.665 27.4413 123.665 27.9339V35.1974H120.85ZM145.792 35.4307C144.594 35.4307 143.56 35.1818 142.689 34.6841C141.823 34.1812 141.157 33.471 140.69 32.5533C140.224 31.6304 139.99 30.5443 139.99 29.2948C139.99 28.0661 140.224 26.9877 140.69 26.0597C141.162 25.1265 141.821 24.4006 142.666 23.8822C143.511 23.3585 144.504 23.0967 145.644 23.0967C146.38 23.0967 147.075 23.216 147.728 23.4544C148.387 23.6877 148.967 24.0507 149.47 24.5432C149.978 25.0357 150.378 25.6631 150.668 26.4252C150.958 27.1821 151.103 28.0842 151.103 29.1315V29.9947H141.312V28.0972H148.405C148.4 27.558 148.283 27.0784 148.055 26.6585C147.827 26.2334 147.508 25.899 147.098 25.6553C146.694 25.4116 146.222 25.2898 145.683 25.2898C145.108 25.2898 144.602 25.4298 144.167 25.7097C143.731 25.9845 143.391 26.3474 143.148 26.7985C142.909 27.2443 142.787 27.7343 142.782 28.2683V29.9247C142.782 30.6195 142.909 31.2157 143.163 31.7134C143.417 32.2059 143.772 32.5844 144.229 32.8488C144.685 33.108 145.219 33.2376 145.831 33.2376C146.24 33.2376 146.611 33.1806 146.943 33.0666C147.275 32.9473 147.562 32.7736 147.806 32.5455C148.05 32.3174 148.234 32.0348 148.358 31.6978L150.987 31.9934C150.821 32.6881 150.505 33.2947 150.038 33.8131C149.577 34.3264 148.986 34.7256 148.265 35.0108C147.544 35.2907 146.72 35.4307 145.792 35.4307ZM157.918 35.4074C156.979 35.4074 156.14 35.1663 155.398 34.6841C154.657 34.202 154.071 33.5021 153.641 32.5844C153.21 31.6667 152.995 30.5521 152.995 29.2404C152.995 27.9131 153.213 26.7933 153.648 25.8808C154.089 24.9631 154.683 24.271 155.429 23.8044C156.176 23.3326 157.008 23.0967 157.926 23.0967C158.626 23.0967 159.201 23.216 159.652 23.4544C160.103 23.6877 160.461 23.9703 160.725 24.3021C160.99 24.6287 161.194 24.9372 161.34 25.2276H161.456V19.2705H164.279V35.1974H161.511V33.3154H161.34C161.194 33.6057 160.984 33.9142 160.71 34.2409C160.435 34.5623 160.072 34.8371 159.621 35.0652C159.17 35.2933 158.602 35.4074 157.918 35.4074ZM158.703 33.0977C159.3 33.0977 159.808 32.9369 160.228 32.6155C160.647 32.2889 160.966 31.8352 161.184 31.2546C161.402 30.6739 161.511 29.9973 161.511 29.2248C161.511 28.4523 161.402 27.7809 161.184 27.2106C160.972 26.6403 160.655 26.1971 160.235 25.8808C159.821 25.5645 159.31 25.4064 158.703 25.4064C158.076 25.4064 157.552 25.5697 157.132 25.8964C156.712 26.223 156.396 26.674 156.184 27.2495C155.971 27.825 155.865 28.4834 155.865 29.2248C155.865 29.9714 155.971 30.6376 156.184 31.2235C156.401 31.8041 156.72 32.263 157.14 32.6C157.565 32.9318 158.086 33.0977 158.703 33.0977Z" fill="white"/>
<defs>
<clipPath id="clip0_8_1784">
<rect width="36.4991" height="36.4991" fill="white" transform="translate(9.52319 10.0224)"/>
</clipPath>
</defs>
</svg>
