<svg width="184" height="24" viewBox="0 0 184 24" fill="none" xmlns="http://www.w3.org/2000/svg">
<g clip-path="url(#clip0_63_99)">
<path d="M12 17.27L18.18 21L16.54 13.97L22 9.24L14.81 8.63L12 2L9.19 8.63L2 9.24L7.46 13.97L5.82 21L12 17.27Z" fill="#0E0E2C"/>
</g>
<g clip-path="url(#clip1_63_99)">
<path d="M52 17.27L58.18 21L56.54 13.97L62 9.24L54.81 8.63L52 2L49.19 8.63L42 9.24L47.46 13.97L45.82 21L52 17.27Z" fill="#0E0E2C"/>
</g>
<g clip-path="url(#clip2_63_99)">
<path d="M92 7.13L92.97 9.42L93.44 10.53L94.64 10.63L97.11 10.84L95.23 12.47L94.32 13.26L94.59 14.44L95.15 16.85L93.03 15.57L92 14.93L90.97 15.55L88.85 16.83L89.41 14.42L89.68 13.24L88.77 12.45L86.89 10.82L89.36 10.61L90.56 10.51L91.03 9.4L92 7.13ZM92 2L89.19 8.63L82 9.24L87.46 13.97L85.82 21L92 17.27L98.18 21L96.54 13.97L102 9.24L94.81 8.63L92 2Z" fill="#A4A4B7"/>
</g>
<g clip-path="url(#clip3_63_99)">
<path d="M132 7.13L132.97 9.42L133.44 10.53L134.64 10.63L137.11 10.84L135.23 12.47L134.32 13.26L134.59 14.44L135.15 16.85L133.03 15.57L132 14.93L130.97 15.55L128.85 16.83L129.41 14.42L129.68 13.24L128.77 12.45L126.89 10.82L129.36 10.61L130.56 10.51L131.03 9.4L132 7.13ZM132 2L129.19 8.63L122 9.24L127.46 13.97L125.82 21L132 17.27L138.18 21L136.54 13.97L142 9.24L134.81 8.63L132 2Z" fill="#A4A4B7"/>
</g>
<g clip-path="url(#clip4_63_99)">
<path d="M172 7.13L172.97 9.42L173.44 10.53L174.64 10.63L177.11 10.84L175.23 12.47L174.32 13.26L174.59 14.44L175.15 16.85L173.03 15.57L172 14.93L170.97 15.55L168.85 16.83L169.41 14.42L169.68 13.24L168.77 12.45L166.89 10.82L169.36 10.61L170.56 10.51L171.03 9.4L172 7.13ZM172 2L169.19 8.63L162 9.24L167.46 13.97L165.82 21L172 17.27L178.18 21L176.54 13.97L182 9.24L174.81 8.63L172 2Z" fill="#A4A4B7"/>
</g>
<defs>
<clipPath id="clip0_63_99">
<rect width="24" height="24" fill="white"/>
</clipPath>
<clipPath id="clip1_63_99">
<rect width="24" height="24" fill="white" transform="translate(40)"/>
</clipPath>
<clipPath id="clip2_63_99">
<rect width="24" height="24" fill="white" transform="translate(80)"/>
</clipPath>
<clipPath id="clip3_63_99">
<rect width="24" height="24" fill="white" transform="translate(120)"/>
</clipPath>
<clipPath id="clip4_63_99">
<rect width="24" height="24" fill="white" transform="translate(160)"/>
</clipPath>
</defs>
</svg>
