<svg width="35" height="35" viewBox="0 0 35 35" fill="none" xmlns="http://www.w3.org/2000/svg">
<path d="M17.2682 12.0235C17.6636 12.0235 17.9952 11.8895 18.2631 11.6216C18.531 11.3537 18.6645 11.0225 18.6636 10.6281C18.6636 10.2328 18.5296 9.90159 18.2617 9.63461C17.9938 9.36764 17.6627 9.23368 17.2682 9.23275C16.8729 9.23275 16.5417 9.36671 16.2748 9.63461C16.0078 9.90252 15.8738 10.2337 15.8729 10.6281C15.8729 11.0235 16.0068 11.3551 16.2748 11.623C16.5427 11.8909 16.8738 12.0244 17.2682 12.0235ZM19.6543 12.0235H22.9278C23.4999 12.0235 23.9929 12.2067 24.4069 12.5732C24.8199 12.9397 25.0664 13.4067 25.1464 13.9742L26.8934 26.2114C26.992 26.8867 26.8171 27.4821 26.3687 27.9974C25.9203 28.5109 25.3464 28.7677 24.6469 28.7677H9.88963C9.1901 28.7677 8.61614 28.5104 8.16777 27.996C7.7194 27.4816 7.54451 26.8863 7.64312 26.21L9.3901 13.9742C9.4701 13.4067 9.71661 12.9397 10.1296 12.5732C10.5445 12.2067 11.038 12.0235 11.6101 12.0235H14.8836C14.7608 11.8262 14.6627 11.6086 14.5892 11.3704C14.5148 11.1314 14.4775 10.8839 14.4775 10.6281C14.4775 9.84113 14.7459 9.17926 15.2827 8.64252C15.8194 8.10577 16.4813 7.8374 17.2682 7.8374C18.0552 7.8374 18.7171 8.10577 19.2538 8.64252C19.7906 9.17926 20.0589 9.84113 20.0589 10.6281C20.0589 10.8839 20.0222 11.1314 19.9487 11.3704C19.8752 11.6086 19.7771 11.8262 19.6543 12.0235Z" fill="#262522"/>
</svg>
