<svg width="322" height="35" viewBox="0 0 322 35" fill="none" xmlns="http://www.w3.org/2000/svg">
<path d="M1.91491 29.8859H0.970462V30.8303H1.91491V29.8859ZM1.91491 5.15859V4.21415H0.970462V5.15859H1.91491ZM17.5506 6.64368L17.0991 7.47323L17.1035 7.47559L17.5506 6.64368ZM21.7764 10.8937L20.9436 11.3391L20.9444 11.3406L21.7764 10.8937ZM21.7764 24.1508L20.9436 23.7054L20.9421 23.7082L21.7764 24.1508ZM17.5626 28.4129L18.0097 29.2448L18.0126 29.2432L17.5626 28.4129ZM7.89147 24.7907H6.94702V25.7351H7.89147V24.7907ZM14.3389 24.0904L14.7527 24.9394L14.7556 24.938L14.3389 24.0904ZM16.5243 21.7843L15.6683 21.3853L15.667 21.3881L16.5243 21.7843ZM16.5243 13.2602L15.6694 13.6617L15.6706 13.6642L16.5243 13.2602ZM14.3148 10.9661L13.898 11.8137L13.9065 11.8178L14.3148 10.9661ZM7.89147 10.2538V9.30932H6.94702V10.2538H7.89147ZM11.0548 28.9414H1.91491V30.8303H11.0548V28.9414ZM2.85935 29.8859V5.15859H0.970462V29.8859H2.85935ZM1.91491 6.10304H11.0427V4.21415H1.91491V6.10304ZM11.0427 6.10304C13.4383 6.10304 15.4455 6.57324 17.0991 7.47322L18.002 5.81413C16.0174 4.734 13.686 4.21415 11.0427 4.21415V6.10304ZM17.1035 7.47559C18.7647 8.36842 20.0401 9.64963 20.9436 11.3391L22.6092 10.4483C21.5326 8.43507 19.9908 6.88295 17.9977 5.81177L17.1035 7.47559ZM20.9444 11.3406C21.8457 13.0186 22.3171 15.0634 22.3171 17.5102H24.2059C24.2059 14.8215 23.6872 12.4553 22.6084 10.4468L20.9444 11.3406ZM22.3171 17.5102C22.3171 19.9654 21.8455 22.0188 20.9436 23.7054L22.6092 24.5962C23.6874 22.5801 24.2059 20.2065 24.2059 17.5102H22.3171ZM20.9421 23.7082C20.0464 25.3967 18.7749 26.6818 17.1127 27.5825L18.0126 29.2432C20.0047 28.1638 21.5424 26.6075 22.6107 24.5933L20.9421 23.7082ZM17.1155 27.5809C15.4519 28.475 13.4428 28.9414 11.0548 28.9414V30.8303C13.6896 30.8303 16.019 30.3147 18.0097 29.2448L17.1155 27.5809ZM7.89147 25.7351H10.8254V23.8462H7.89147V25.7351ZM10.8254 25.7351C12.312 25.7351 13.6333 25.485 14.7527 24.9394L13.9251 23.2414C13.1288 23.6296 12.1078 23.8462 10.8254 23.8462V25.7351ZM14.7556 24.938C15.9332 24.359 16.8083 23.4211 17.3816 22.1805L15.667 21.3881C15.2583 22.2725 14.6764 22.872 13.9222 23.2429L14.7556 24.938ZM17.3803 22.1833C17.9595 20.9408 18.2173 19.3634 18.2173 17.5102H16.3284C16.3284 19.2146 16.0872 20.4867 15.6683 21.3853L17.3803 22.1833ZM18.2173 17.5102C18.2173 15.658 17.9599 14.0857 17.3779 12.8561L15.6706 13.6642C16.0868 14.5436 16.3284 15.8045 16.3284 17.5102H18.2173ZM17.3791 12.8586C16.7961 11.6174 15.9108 10.6838 14.723 10.1145L13.9065 11.8178C14.6667 12.1821 15.2543 12.7779 15.6694 13.6617L17.3791 12.8586ZM14.7315 10.1186C13.6016 9.56306 12.2582 9.30932 10.7409 9.30932V11.1982C12.0569 11.1982 13.0961 11.4194 13.8981 11.8137L14.7315 10.1186ZM10.7409 9.30932H7.89147V11.1982H10.7409V9.30932ZM6.94702 10.2538V24.7907H8.83591V10.2538H6.94702ZM34.7674 5.15859H35.7119V4.21415H34.7674V5.15859ZM34.7674 29.8859V30.8303H35.7119V29.8859H34.7674ZM28.7908 29.8859H27.8464V30.8303H28.7908V29.8859ZM28.7908 5.15859V4.21415H27.8464V5.15859H28.7908ZM33.823 5.15859V29.8859H35.7119V5.15859H33.823ZM34.7674 28.9414H28.7908V30.8303H34.7674V28.9414ZM29.7353 29.8859V5.15859H27.8464V29.8859H29.7353ZM28.7908 6.10304H34.7674V4.21415H28.7908V6.10304ZM53.9251 12.5719L52.9846 12.6574L53.0626 13.5164H53.9251V12.5719ZM52.8506 10.5073L52.2628 11.2467L52.2733 11.2548L52.8506 10.5073ZM48.2263 10.0606L47.8826 9.18087L47.8826 9.18087L48.2263 10.0606ZM47.0672 10.8937L47.8249 11.4576L47.831 11.4492L47.0672 10.8937ZM46.6687 12.089L47.6123 12.13L47.6128 12.1179L47.613 12.1059L46.6687 12.089ZM46.8861 13.067L46.0661 13.5355L46.071 13.5443L46.0762 13.5529L46.8861 13.067ZM47.6105 13.8156L47.0729 14.5921L47.0842 14.5999L47.0958 14.6074L47.6105 13.8156ZM48.7696 14.3709L49.0872 13.4815L49.0872 13.4815L48.7696 14.3709ZM50.2909 14.7935L50.5002 13.8725L50.4888 13.8701L50.2909 14.7935ZM52.4159 15.2765L52.2066 16.1975L52.2155 16.1994L52.4159 15.2765ZM55.6517 16.339L55.2471 17.1924L55.2499 17.1937L55.6517 16.339ZM58.0182 17.9207L57.3634 18.6013L57.3677 18.6054L58.0182 17.9207ZM59.4791 20.0336L58.6065 20.395L58.6065 20.395L59.4791 20.0336ZM59.9862 22.714L60.9307 22.7189L60.9306 22.7063L59.9862 22.714ZM58.803 26.7346L58.0285 26.1941L58.0285 26.1941L58.803 26.7346ZM55.4344 29.3063L55.0786 28.4314L55.077 28.4321L55.4344 29.3063ZM44.749 29.2701L45.1021 28.3942L45.1021 28.3942L44.749 29.2701ZM41.1631 26.4448L40.3803 26.9733L41.1631 26.4448ZM39.847 21.6515V20.707H38.8907L38.9026 21.6633L39.847 21.6515ZM45.57 21.6515L46.5127 21.5944L46.459 20.707H45.57V21.6515ZM46.2099 23.6437L45.4406 24.1915L45.4406 24.1915L46.2099 23.6437ZM47.7675 24.8511L47.4057 25.7235L47.4095 25.725L47.7675 24.8511ZM52.1382 24.9356L51.8025 24.0528L51.7983 24.0544L52.1382 24.9356ZM53.4542 24.03L52.7138 23.4438L52.7138 23.4438L53.4542 24.03ZM53.9251 22.7019L54.8695 22.7171L54.8697 22.7014L54.8694 22.6856L53.9251 22.7019ZM53.4905 21.5066L52.7649 22.1113L52.7722 22.1198L53.4905 21.5066ZM52.1865 20.6373L51.813 21.5047L51.8202 21.5079L51.8275 21.5108L52.1865 20.6373ZM49.9649 19.9491L49.75 20.8688L49.7513 20.8691L49.9649 19.9491ZM47.3811 19.3454L47.596 18.4257L47.5922 18.4248L47.3811 19.3454ZM42.3221 16.9668L41.6921 17.6704L41.6947 17.6727L42.3221 16.9668ZM40.4869 12.4995L41.4314 12.5036L41.4313 12.4945L40.4869 12.4995ZM41.7185 8.4789L40.9521 7.92692L40.9521 7.92692L41.7185 8.4789ZM45.1595 5.78643L45.5395 6.65104L45.5395 6.65104L45.1595 5.78643ZM55.1567 5.7985L54.7599 6.65561L54.7658 6.6583L55.1567 5.7985ZM58.4528 8.51513L59.2378 7.98999L59.2378 7.98999L58.4528 8.51513ZM59.6481 12.5719V13.5164H60.6025L60.5925 12.5621L59.6481 12.5719ZM54.8657 12.4864C54.7642 11.3704 54.295 10.4294 53.4278 9.75978L52.2733 11.2548C52.6779 11.5672 52.925 12.0027 52.9846 12.6574L54.8657 12.4864ZM53.4382 9.76798C52.5821 9.08748 51.4446 8.81429 50.1581 8.81429V10.7032C51.2059 10.7032 51.8633 10.929 52.2629 11.2466L53.4382 9.76798ZM50.1581 8.81429C49.3111 8.81429 48.5415 8.92352 47.8826 9.18087L48.5699 10.9403C48.9414 10.7952 49.4596 10.7032 50.1581 10.7032V8.81429ZM47.8826 9.18087C47.2433 9.43062 46.6918 9.80403 46.3034 10.3382L47.831 11.4492C47.9577 11.275 48.179 11.093 48.5699 10.9403L47.8826 9.18087ZM46.3095 10.3298C45.9286 10.8417 45.7358 11.4335 45.7244 12.0721L47.613 12.1059C47.6177 11.843 47.6906 11.6379 47.8248 11.4575L46.3095 10.3298ZM45.7252 12.048C45.7025 12.5704 45.8046 13.0779 46.0661 13.5355L47.7061 12.5984C47.6456 12.4926 47.6028 12.3481 47.6123 12.13L45.7252 12.048ZM46.0762 13.5529C46.3246 13.9669 46.6664 14.3106 47.0729 14.5921L48.1481 13.039C47.9268 12.8858 47.7856 12.7305 47.6959 12.5811L46.0762 13.5529ZM47.0958 14.6074C47.4923 14.8652 47.9481 15.0804 48.4519 15.2604L49.0872 13.4815C48.6895 13.3395 48.3726 13.1845 48.1252 13.0237L47.0958 14.6074ZM48.4519 15.2604C48.9488 15.4378 49.4968 15.5893 50.093 15.717L50.4888 13.8701C49.9581 13.7563 49.4919 13.6261 49.0872 13.4815L48.4519 15.2604ZM50.0816 15.7145L52.2066 16.1974L52.6252 14.3555L50.5002 13.8726L50.0816 15.7145ZM52.2155 16.1994C53.3828 16.4528 54.3906 16.7863 55.2471 17.1924L56.0563 15.4856C55.0454 15.0063 53.896 14.6314 52.6163 14.3535L52.2155 16.1994ZM55.2499 17.1937C56.1147 17.6002 56.8137 18.0725 57.3634 18.6013L58.6729 17.24C57.9508 16.5454 57.0722 15.9632 56.0535 15.4843L55.2499 17.1937ZM57.3677 18.6054C57.9187 19.1289 58.3286 19.7239 58.6065 20.395L60.3517 19.6722C59.9696 18.7495 59.4055 17.936 58.6687 17.2359L57.3677 18.6054ZM58.6065 20.395C58.8837 21.0643 59.0346 21.8352 59.0418 22.7217L60.9306 22.7063C60.9217 21.6126 60.7345 20.5966 60.3517 19.6722L58.6065 20.395ZM59.0418 22.7091C59.0346 24.1077 58.6843 25.2544 58.0285 26.1941L59.5775 27.2751C60.4832 25.9771 60.9218 24.4434 60.9306 22.7189L59.0418 22.7091ZM58.0285 26.1941C57.3678 27.1408 56.4021 27.8933 55.0786 28.4314L55.7901 30.1812C57.3965 29.5281 58.6765 28.5661 59.5775 27.2751L58.0285 26.1941ZM55.077 28.4321C53.7626 28.9695 52.1321 29.2553 50.1581 29.2553V31.1442C52.3052 31.1442 54.1923 30.8345 55.7918 30.1805L55.077 28.4321ZM50.1581 29.2553C48.1815 29.2553 46.5032 28.959 45.1021 28.3942L44.3959 30.146C46.0695 30.8208 47.9974 31.1442 50.1581 31.1442V29.2553ZM45.1021 28.3942C43.7234 27.8384 42.6844 27.0104 41.9458 25.9163L40.3803 26.9733C41.3481 28.4067 42.6997 29.4623 44.3959 30.146L45.1021 28.3942ZM41.9458 25.9163C41.2201 24.8415 40.8138 23.4362 40.7914 21.6397L38.9026 21.6633C38.9285 23.7304 39.3996 25.5207 40.3803 26.9733L41.9458 25.9163ZM39.847 22.5959H45.57V20.707H39.847V22.5959ZM44.6273 21.7086C44.6839 22.6424 44.9389 23.4869 45.4406 24.1915L46.9792 23.0958C46.7244 22.7379 46.5527 22.2543 46.5127 21.5944L44.6273 21.7086ZM45.4406 24.1915C45.9314 24.8807 46.5983 25.3887 47.4057 25.7235L48.1292 23.9786C47.6166 23.7661 47.2451 23.4692 46.9792 23.0958L45.4406 24.1915ZM47.4095 25.725C48.2128 26.0541 49.1112 26.206 50.0856 26.206V24.3171C49.3053 24.3171 48.6583 24.1954 48.1255 23.9771L47.4095 25.725ZM50.0856 26.206C50.9703 26.206 51.7767 26.0873 52.4781 25.8167L51.7983 24.0544C51.3728 24.2185 50.8108 24.3171 50.0856 24.3171V26.206ZM52.4739 25.8183C53.1665 25.555 53.7604 25.1648 54.1947 24.6163L52.7138 23.4438C52.5363 23.668 52.2529 23.8815 51.8025 24.0528L52.4739 25.8183ZM54.1947 24.6163C54.6312 24.0649 54.8581 23.4209 54.8695 22.7171L52.9808 22.6867C52.9761 22.9811 52.889 23.2225 52.7138 23.4438L54.1947 24.6163ZM54.8694 22.6856C54.8579 22.0175 54.644 21.4033 54.2088 20.8934L52.7722 22.1198C52.9003 22.27 52.9762 22.4526 52.9808 22.7182L54.8694 22.6856ZM54.216 20.902C53.8019 20.405 53.2165 20.0395 52.5455 19.7637L51.8275 21.5108C52.3317 21.718 52.6156 21.9321 52.7649 22.1112L54.216 20.902ZM52.56 19.7698C51.911 19.4904 51.1119 19.2458 50.1785 19.0291L49.7513 20.8691C50.6209 21.0709 51.3029 21.2851 51.813 21.5047L52.56 19.7698ZM50.1798 19.0294L47.596 18.4257L47.1662 20.2651L49.75 20.8687L50.1798 19.0294ZM47.5922 18.4248C45.5561 17.9579 44.0296 17.221 42.9496 16.2609L41.6947 17.6727C43.0777 18.9021 44.9239 19.7508 47.17 20.2659L47.5922 18.4248ZM42.9522 16.2632C41.95 15.3658 41.4243 14.1494 41.4314 12.5036L39.5425 12.4954C39.5334 14.6006 40.2313 16.3623 41.6921 17.6704L42.9522 16.2632ZM41.4313 12.4945C41.4243 11.1485 41.7818 10.0069 42.4848 9.03089L40.9521 7.92692C39.997 9.253 39.5335 10.7918 39.5425 12.5045L41.4313 12.4945ZM42.4848 9.03089C43.2032 8.03353 44.2088 7.236 45.5395 6.65104L44.7795 4.92183C43.1803 5.62474 41.8919 6.6222 40.9521 7.92692L42.4848 9.03089ZM45.5395 6.65104C46.8659 6.06802 48.4033 5.76497 50.1702 5.76497V3.87608C48.1861 3.87608 46.383 4.21696 44.7795 4.92183L45.5395 6.65104ZM50.1702 5.76497C51.9802 5.76497 53.5013 6.073 54.76 6.65559L55.5534 4.94142C53.9948 4.22004 52.1916 3.87608 50.1702 3.87608V5.76497ZM54.7658 6.6583C56.0404 7.23764 56.9951 8.03465 57.6678 9.04026L59.2378 7.98999C58.349 6.66132 57.1063 5.64725 55.5475 4.93871L54.7658 6.6583ZM57.6678 9.04026C58.3369 10.0404 58.6894 11.2099 58.7037 12.5818L60.5925 12.5621C60.5747 10.8592 60.1303 9.32414 59.2378 7.98999L57.6678 9.04026ZM59.6481 11.6275H53.9251V13.5164H59.6481V11.6275ZM65.0447 29.8859H64.1002V30.8303H65.0447V29.8859ZM65.0447 5.15859V4.21415H64.1002V5.15859H65.0447ZM71.0212 5.15859H71.9657V4.21415H71.0212V5.15859ZM71.0212 15.0833H70.0768V16.0278H71.0212V15.0833ZM80.7648 15.0833V16.0278H81.7093V15.0833H80.7648ZM80.7648 5.15859V4.21415H79.8204V5.15859H80.7648ZM86.7293 5.15859H87.6738V4.21415H86.7293V5.15859ZM86.7293 29.8859V30.8303H87.6738V29.8859H86.7293ZM80.7648 29.8859H79.8204V30.8303H80.7648V29.8859ZM80.7648 19.9491H81.7093V19.0046H80.7648V19.9491ZM71.0212 19.9491V19.0046H70.0768V19.9491H71.0212ZM71.0212 29.8859V30.8303H71.9657V29.8859H71.0212ZM65.9891 29.8859V5.15859H64.1002V29.8859H65.9891ZM65.0447 6.10304H71.0212V4.21415H65.0447V6.10304ZM70.0768 5.15859V15.0833H71.9657V5.15859H70.0768ZM71.0212 16.0278H80.7648V14.1389H71.0212V16.0278ZM81.7093 15.0833V5.15859H79.8204V15.0833H81.7093ZM80.7648 6.10304H86.7293V4.21415H80.7648V6.10304ZM85.7849 5.15859V29.8859H87.6738V5.15859H85.7849ZM86.7293 28.9414H80.7648V30.8303H86.7293V28.9414ZM81.7093 29.8859V19.9491H79.8204V29.8859H81.7093ZM80.7648 19.0046H71.0212V20.8935H80.7648V19.0046ZM70.0768 19.9491V29.8859H71.9657V19.9491H70.0768ZM71.0212 28.9414H65.0447V30.8303H71.0212V28.9414Z" fill="white"/>
<path d="M113.054 29.8859H103.914V5.15859H113.042C115.562 5.15859 117.731 5.65362 119.55 6.64368C121.377 7.62568 122.786 9.04235 123.776 10.8937C124.766 12.737 125.261 14.9424 125.261 17.5102C125.261 20.0859 124.766 22.2995 123.776 24.1508C122.794 26.0021 121.389 27.4228 119.562 28.4129C117.735 29.3949 115.566 29.8859 113.054 29.8859ZM109.891 24.7907H112.825C114.209 24.7907 115.381 24.5573 116.338 24.0904C117.304 23.6155 118.033 22.8468 118.524 21.7843C119.023 20.7138 119.272 19.289 119.272 17.5102C119.272 15.7313 119.023 14.3146 118.524 13.2602C118.025 12.1977 117.288 11.433 116.314 10.9661C115.348 10.4912 114.157 10.2538 112.74 10.2538H109.891V24.7907ZM136.767 5.15859V29.8859H130.79V5.15859H136.767ZM155.925 12.5719C155.844 11.6865 155.486 10.9983 154.85 10.5073C154.222 10.0083 153.325 9.75873 152.158 9.75873C151.385 9.75873 150.741 9.85935 150.226 10.0606C149.711 10.2618 149.324 10.5395 149.067 10.8937C148.809 11.2398 148.676 11.6382 148.668 12.089C148.652 12.4593 148.725 12.7852 148.886 13.067C149.055 13.3487 149.296 13.5982 149.61 13.8156C149.932 14.0248 150.318 14.21 150.769 14.3709C151.22 14.5319 151.727 14.6728 152.29 14.7935L154.415 15.2765C155.639 15.5421 156.717 15.8963 157.651 16.339C158.593 16.7817 159.382 17.3089 160.018 17.9207C160.662 18.5324 161.149 19.2367 161.479 20.0336C161.809 20.8305 161.978 21.7239 161.986 22.714C161.978 24.2755 161.583 25.6157 160.802 26.7346C160.022 27.8534 158.899 28.7107 157.434 29.3063C155.977 29.902 154.218 30.1998 152.158 30.1998C150.089 30.1998 148.286 29.8899 146.749 29.2701C145.211 28.6503 144.016 27.7085 143.163 26.4448C142.309 25.1811 141.871 23.5833 141.847 21.6515H147.57C147.618 22.4484 147.831 23.1124 148.209 23.6437C148.588 24.1749 149.107 24.5774 149.767 24.8511C150.435 25.1247 151.208 25.2616 152.085 25.2616C152.89 25.2616 153.574 25.1529 154.138 24.9356C154.709 24.7183 155.148 24.4164 155.454 24.03C155.76 23.6437 155.917 23.201 155.925 22.7019C155.917 22.2351 155.772 21.8366 155.49 21.5066C155.208 21.1685 154.774 20.8788 154.186 20.6373C153.606 20.3878 152.866 20.1584 151.964 19.9491L149.381 19.3454C147.24 18.8544 145.553 18.0615 144.322 16.9668C143.09 15.8641 142.478 14.375 142.486 12.4995C142.478 10.9701 142.889 9.62994 143.718 8.4789C144.547 7.32786 145.694 6.43037 147.159 5.78643C148.624 5.14249 150.294 4.82052 152.17 4.82052C154.085 4.82052 155.748 5.14652 157.156 5.7985C158.573 6.44244 159.672 7.34799 160.452 8.51513C161.233 9.68227 161.632 11.0345 161.648 12.5719H155.925ZM189.489 14.1174H183.453C183.372 13.4976 183.207 12.9382 182.958 12.4391C182.708 11.9401 182.378 11.5135 181.967 11.1593C181.557 10.8051 181.07 10.5355 180.507 10.3504C179.951 10.1572 179.335 10.0606 178.659 10.0606C177.46 10.0606 176.426 10.3544 175.556 10.942C174.695 11.5296 174.031 12.3788 173.564 13.4896C173.105 14.6004 172.876 15.9446 172.876 17.5222C172.876 19.1643 173.109 20.5407 173.576 21.6515C174.051 22.7542 174.715 23.5873 175.568 24.1508C176.43 24.7062 177.448 24.9839 178.623 24.9839C179.283 24.9839 179.883 24.8994 180.422 24.7303C180.969 24.5613 181.448 24.3158 181.859 23.9938C182.277 23.6638 182.619 23.2654 182.885 22.7985C183.159 22.3236 183.348 21.7883 183.453 21.1927L189.489 21.2289C189.385 22.3236 189.067 23.4022 188.536 24.4647C188.012 25.5272 187.292 26.4971 186.374 27.3745C185.457 28.2438 184.338 28.9361 183.018 29.4512C181.706 29.9664 180.201 30.2239 178.502 30.2239C176.265 30.2239 174.26 29.7329 172.489 28.7509C170.727 27.7609 169.334 26.32 168.312 24.4285C167.29 22.5369 166.779 20.2348 166.779 17.5222C166.779 14.8016 167.298 12.4955 168.336 10.6039C169.374 8.71233 170.779 7.27554 172.55 6.29353C174.321 5.31153 176.305 4.82052 178.502 4.82052C179.999 4.82052 181.384 5.0298 182.656 5.44836C183.927 5.85887 185.046 6.46257 186.012 7.25944C186.978 8.04827 187.763 9.0182 188.367 10.1692C188.97 11.3203 189.345 12.6363 189.489 14.1174ZM218.288 17.5222C218.288 20.2429 217.765 22.549 216.719 24.4406C215.672 26.3321 214.256 27.7689 212.469 28.7509C210.69 29.7329 208.694 30.2239 206.48 30.2239C204.258 30.2239 202.258 29.7289 200.479 28.7388C198.7 27.7488 197.288 26.312 196.241 24.4285C195.203 22.5369 194.684 20.2348 194.684 17.5222C194.684 14.8016 195.203 12.4955 196.241 10.6039C197.288 8.71233 198.7 7.27554 200.479 6.29353C202.258 5.31153 204.258 4.82052 206.48 4.82052C208.694 4.82052 210.69 5.31153 212.469 6.29353C214.256 7.27554 215.672 8.71233 216.719 10.6039C217.765 12.4955 218.288 14.8016 218.288 17.5222ZM212.179 17.5222C212.179 15.9124 211.949 14.5521 211.491 13.4413C211.04 12.3305 210.388 11.4893 209.535 10.9178C208.689 10.3463 207.671 10.0606 206.48 10.0606C205.297 10.0606 204.278 10.3463 203.425 10.9178C202.572 11.4893 201.916 12.3305 201.457 13.4413C201.006 14.5521 200.781 15.9124 200.781 17.5222C200.781 19.1321 201.006 20.4924 201.457 21.6032C201.916 22.714 202.572 23.5551 203.425 24.1266C204.278 24.6981 205.297 24.9839 206.48 24.9839C207.671 24.9839 208.689 24.6981 209.535 24.1266C210.388 23.5551 211.04 22.714 211.491 21.6032C211.949 20.4924 212.179 19.1321 212.179 17.5222ZM227.971 5.15859L233.501 23.2694H233.706L239.236 5.15859H245.925L237.582 29.8859H229.625L221.282 5.15859H227.971ZM250.627 29.8859V5.15859H267.869V10.0123H256.604V15.0833H266.987V19.9491H256.604V25.0322H267.869V29.8859H250.627ZM273.651 29.8859V5.15859H283.866C285.717 5.15859 287.315 5.49263 288.659 6.16072C290.012 6.82076 291.054 7.77057 291.786 9.01015C292.519 10.2417 292.885 11.7026 292.885 13.393C292.885 15.1075 292.511 16.5644 291.762 17.7637C291.014 18.955 289.951 19.8646 288.575 20.4924C287.198 21.1122 285.568 21.4221 283.685 21.4221H277.225V16.7133H282.574C283.476 16.7133 284.228 16.5966 284.832 16.3631C285.444 16.1217 285.906 15.7594 286.22 15.2765C286.534 14.7855 286.691 14.1576 286.691 13.393C286.691 12.6283 286.534 11.9964 286.22 11.4974C285.906 10.9903 285.444 10.612 284.832 10.3624C284.22 10.1049 283.467 9.97606 282.574 9.97606H279.628V29.8859H273.651ZM287.573 18.5847L293.73 29.8859H287.21L281.173 18.5847H287.573ZM295.876 5.15859H302.553L307.781 15.5059H307.998L313.226 5.15859H319.903L310.86 21.6273V29.8859H304.919V21.6273L295.876 5.15859Z" fill="white"/>
</svg>
