<svg width="270" height="34" viewBox="0 0 321 34" fill="none" xmlns="http://www.w3.org/2000/svg">
<path d="M1.87145 29H0.927005V29.9444H1.87145V29ZM1.87145 4.27273V3.32828H0.927005V4.27273H1.87145ZM17.5071 5.75781L17.0556 6.58737L17.06 6.58972L17.5071 5.75781ZM21.733 10.0078L20.9001 10.4532L20.9009 10.4547L21.733 10.0078ZM21.733 23.2649L20.9001 22.8195L20.8986 22.8224L21.733 23.2649ZM17.5192 27.527L17.9663 28.3589L17.9691 28.3574L17.5192 27.527ZM7.84801 23.9048H6.90357V24.8493H7.84801V23.9048ZM14.2955 23.2045L14.7092 24.0535L14.7122 24.0521L14.2955 23.2045ZM16.4808 20.8984L15.6248 20.4994L15.6235 20.5022L16.4808 20.8984ZM16.4808 12.3743L15.626 12.7758L15.6272 12.7783L16.4808 12.3743ZM14.2713 10.0803L13.8546 10.9278L13.8631 10.9319L14.2713 10.0803ZM7.84801 9.3679V8.42345H6.90357V9.3679H7.84801ZM11.0114 28.0556H1.87145V29.9444H11.0114V28.0556ZM2.81589 29V4.27273H0.927005V29H2.81589ZM1.87145 5.21717H10.9993V3.32828H1.87145V5.21717ZM10.9993 5.21717C13.3948 5.21717 15.402 5.68738 17.0556 6.58736L17.9586 4.92827C15.9739 3.84813 13.6426 3.32828 10.9993 3.32828V5.21717ZM17.06 6.58972C18.7212 7.48255 19.9966 8.76377 20.9001 10.4532L22.5658 9.56243C21.4891 7.5492 19.9473 5.99709 17.9542 4.9259L17.06 6.58972ZM20.9009 10.4547C21.8022 12.1327 22.2736 14.1775 22.2736 16.6243H24.1625C24.1625 13.9356 23.6438 11.5694 22.565 9.56092L20.9009 10.4547ZM22.2736 16.6243C22.2736 19.0795 21.8021 21.133 20.9001 22.8195L22.5658 23.7103C23.6439 21.6942 24.1625 19.3206 24.1625 16.6243H22.2736ZM20.8986 22.8224C20.003 24.5109 18.7314 25.7959 17.0692 26.6966L17.9691 28.3574C19.9613 27.2779 21.4989 25.7216 22.5673 23.7075L20.8986 22.8224ZM17.0721 26.6951C15.4085 27.5892 13.3993 28.0556 11.0114 28.0556V29.9444C13.6461 29.9444 15.9755 29.4288 17.9663 28.3589L17.0721 26.6951ZM7.84801 24.8493H10.782V22.9604H7.84801V24.8493ZM10.782 24.8493C12.2685 24.8493 13.5899 24.5991 14.7092 24.0535L13.8817 22.3556C13.0853 22.7437 12.0644 22.9604 10.782 22.9604V24.8493ZM14.7122 24.0521C15.8897 23.4731 16.7648 22.5353 17.3382 21.2946L15.6235 20.5022C15.2148 21.3866 14.633 21.9862 13.8787 22.357L14.7122 24.0521ZM17.3368 21.2975C17.916 20.055 18.1738 18.4776 18.1738 16.6243H16.285C16.285 18.3288 16.0437 19.6008 15.6248 20.4994L17.3368 21.2975ZM18.1738 16.6243C18.1738 14.7722 17.9164 13.1998 17.3345 11.9703L15.6272 12.7783C16.0434 13.6577 16.285 14.9187 16.285 16.6243H18.1738ZM17.3357 11.9728C16.7527 10.7316 15.8673 9.79794 14.6795 9.2286L13.8631 10.9319C14.6232 11.2963 15.2109 11.892 15.626 12.7758L17.3357 11.9728ZM14.688 9.23271C13.5581 8.67719 12.2148 8.42345 10.6974 8.42345V10.3123C12.0134 10.3123 13.0527 10.5335 13.8546 10.9278L14.688 9.23271ZM10.6974 8.42345H7.84801V10.3123H10.6974V8.42345ZM6.90357 9.3679V23.9048H8.79246V9.3679H6.90357ZM34.724 4.27273H35.6684V3.32828H34.724V4.27273ZM34.724 29V29.9444H35.6684V29H34.724ZM28.7474 29H27.8029V29.9444H28.7474V29ZM28.7474 4.27273V3.32828H27.8029V4.27273H28.7474ZM33.7795 4.27273V29H35.6684V4.27273H33.7795ZM34.724 28.0556H28.7474V29.9444H34.724V28.0556ZM29.6918 29V4.27273H27.8029V29H29.6918ZM28.7474 5.21717H34.724V3.32828H28.7474V5.21717ZM53.8817 11.6861L52.9411 11.7716L53.0192 12.6305H53.8817V11.6861ZM52.8071 9.62145L52.2194 10.3609L52.2299 10.369L52.8071 9.62145ZM48.1828 9.17471L47.8392 8.295L47.8392 8.29501L48.1828 9.17471ZM47.0237 10.0078L47.7814 10.5717L47.7875 10.5633L47.0237 10.0078ZM46.6253 11.2031L47.5688 11.2441L47.5694 11.2321L47.5696 11.22L46.6253 11.2031ZM46.8426 12.1811L46.0226 12.6497L46.0276 12.6584L46.0328 12.667L46.8426 12.1811ZM47.567 12.9297L47.0295 13.7062L47.0408 13.714L47.0523 13.7216L47.567 12.9297ZM48.7261 13.4851L49.0438 12.5957L49.0438 12.5957L48.7261 13.4851ZM50.2474 13.9077L50.4568 12.9866L50.4453 12.9842L50.2474 13.9077ZM52.3724 14.3906L52.1631 15.3116L52.1721 15.3136L52.3724 14.3906ZM55.6082 15.4531L55.2036 16.3065L55.2064 16.3078L55.6082 15.4531ZM57.9747 17.0348L57.3199 17.7154L57.3242 17.7195L57.9747 17.0348ZM59.4356 19.1477L58.5631 19.5091L58.5631 19.5091L59.4356 19.1477ZM59.9428 21.8281L60.8873 21.833L60.8872 21.8204L59.9428 21.8281ZM58.7595 25.8487L57.985 25.3082L57.985 25.3082L58.7595 25.8487ZM55.3909 28.4205L55.0352 27.5456L55.0335 27.5462L55.3909 28.4205ZM44.7055 28.3842L45.0587 27.5083L45.0587 27.5083L44.7055 28.3842ZM41.1196 25.5589L40.3369 26.0874L41.1196 25.5589ZM39.8035 20.7656V19.8212H38.8472L38.8592 20.7774L39.8035 20.7656ZM45.5266 20.7656L46.4693 20.7085L46.4155 19.8212H45.5266V20.7656ZM46.1665 22.7578L45.3972 23.3057L45.3972 23.3057L46.1665 22.7578ZM47.724 23.9652L47.3623 24.8376L47.366 24.8392L47.724 23.9652ZM52.0947 24.0497L51.759 23.1669L51.7549 23.1685L52.0947 24.0497ZM53.4108 23.1442L52.6703 22.558L52.6703 22.558L53.4108 23.1442ZM53.8817 21.8161L54.826 21.8313L54.8262 21.8155L54.826 21.7998L53.8817 21.8161ZM53.447 20.6207L52.7214 21.2254L52.7287 21.2339L53.447 20.6207ZM52.143 19.7514L51.7695 20.6189L51.7768 20.622L51.784 20.625L52.143 19.7514ZM49.9214 19.0632L49.7066 19.9829L49.7079 19.9832L49.9214 19.0632ZM47.3376 18.4595L47.5525 17.5398L47.5487 17.539L47.3376 18.4595ZM42.2787 16.081L41.6487 16.7846L41.6512 16.7869L42.2787 16.081ZM40.4435 11.6136L41.3879 11.6177L41.3879 11.6087L40.4435 11.6136ZM41.675 7.59304L40.9086 7.04105L40.9086 7.04105L41.675 7.59304ZM45.116 4.90057L45.4961 5.76517L45.4961 5.76517L45.116 4.90057ZM55.1132 4.91264L54.7165 5.76975L54.7224 5.77243L55.1132 4.91264ZM58.4094 7.62926L59.1944 7.10413L59.1944 7.10413L58.4094 7.62926ZM59.6047 11.6861V12.6305H60.5591L60.5491 11.6762L59.6047 11.6861ZM54.8222 11.6006C54.7208 10.4845 54.2515 9.54353 53.3843 8.87392L52.2299 10.369C52.6345 10.6814 52.8816 11.1168 52.9411 11.7716L54.8222 11.6006ZM53.3948 8.88212C52.5387 8.20162 51.4011 7.92842 50.1146 7.92842V9.81731C51.1624 9.81731 51.8199 10.0432 52.2194 10.3608L53.3948 8.88212ZM50.1146 7.92842C49.2676 7.92842 48.498 8.03765 47.8392 8.295L48.5264 10.0544C48.8979 9.90932 49.4162 9.81731 50.1146 9.81731V7.92842ZM47.8392 8.29501C47.1998 8.54476 46.6484 8.91816 46.2599 9.45232L47.7875 10.5633C47.9142 10.3891 48.1355 10.2071 48.5264 10.0544L47.8392 8.29501ZM46.2661 9.44397C45.8851 9.95584 45.6924 10.5476 45.681 11.1863L47.5696 11.22C47.5743 10.9571 47.6472 10.752 47.7814 10.5717L46.2661 9.44397ZM45.6817 11.1621C45.659 11.6845 45.7611 12.1921 46.0226 12.6497L47.6626 11.7125C47.6021 11.6067 47.5593 11.4622 47.5688 11.2441L45.6817 11.1621ZM46.0328 12.667C46.2812 13.0811 46.6229 13.4248 47.0295 13.7062L48.1046 12.1532C47.8833 12 47.7421 11.8446 47.6525 11.6952L46.0328 12.667ZM47.0523 13.7216C47.4489 13.9793 47.9047 14.1946 48.4085 14.3745L49.0438 12.5957C48.6461 12.4536 48.3291 12.2986 48.0818 12.1378L47.0523 13.7216ZM48.4085 14.3745C48.9053 14.5519 49.4534 14.7034 50.0496 14.8312L50.4453 12.9842C49.9146 12.8705 49.4485 12.7402 49.0438 12.5957L48.4085 14.3745ZM50.0381 14.8286L52.1631 15.3116L52.5817 13.4697L50.4567 12.9867L50.0381 14.8286ZM52.1721 15.3136C53.3393 15.567 54.3471 15.9004 55.2036 16.3065L56.0129 14.5997C55.0019 14.1204 53.8525 13.7455 52.5728 13.4677L52.1721 15.3136ZM55.2064 16.3078C56.0712 16.7144 56.7703 17.1866 57.3199 17.7154L58.6295 16.3542C57.9074 15.6595 57.0287 15.0773 56.01 14.5984L55.2064 16.3078ZM57.3242 17.7195C57.8752 18.243 58.2852 18.838 58.5631 19.5091L60.3082 18.7864C59.9261 17.8637 59.3621 17.0501 58.6252 16.3501L57.3242 17.7195ZM58.5631 19.5091C58.8403 20.1784 58.9911 20.9494 58.9983 21.8358L60.8872 21.8204C60.8783 20.7268 60.6911 19.7108 60.3082 18.7864L58.5631 19.5091ZM58.9983 21.8233C58.9911 23.2218 58.6408 24.3685 57.985 25.3082L59.534 26.3892C60.4398 25.0912 60.8783 23.5576 60.8872 21.833L58.9983 21.8233ZM57.985 25.3082C57.3244 26.2549 56.3587 27.0074 55.0352 27.5456L55.7466 29.2953C57.353 28.6422 58.6331 27.6802 59.534 26.3892L57.985 25.3082ZM55.0335 27.5462C53.7192 28.0836 52.0887 28.3695 50.1146 28.3695V30.2584C52.2618 30.2584 54.1488 29.9486 55.7483 29.2947L55.0335 27.5462ZM50.1146 28.3695C48.138 28.3695 46.4598 28.0731 45.0587 27.5083L44.3524 29.2602C46.0261 29.9349 47.9539 30.2584 50.1146 30.2584V28.3695ZM45.0587 27.5083C43.68 26.9525 42.641 26.1245 41.9023 25.0305L40.3369 26.0874C41.3046 27.5209 42.6563 28.5764 44.3524 29.2602L45.0587 27.5083ZM41.9023 25.0305C41.1766 23.9556 40.7704 22.5503 40.7479 20.7538L38.8592 20.7774C38.885 22.8445 39.3561 24.6348 40.3369 26.0874L41.9023 25.0305ZM39.8035 21.7101H45.5266V19.8212H39.8035V21.7101ZM44.5838 20.8228C44.6404 21.7566 44.8954 22.6011 45.3972 23.3057L46.9358 22.21C46.6809 21.8521 46.5093 21.3684 46.4693 20.7085L44.5838 20.8228ZM45.3972 23.3057C45.8879 23.9948 46.5548 24.5028 47.3623 24.8376L48.0857 23.0928C47.5731 22.8802 47.2016 22.5833 46.9358 22.21L45.3972 23.3057ZM47.366 24.8392C48.1693 25.1682 49.0678 25.3202 50.0422 25.3202V23.4313C49.2619 23.4313 48.6149 23.3095 48.082 23.0912L47.366 24.8392ZM50.0422 25.3202C50.9269 25.3202 51.7333 25.2014 52.4346 24.9309L51.7549 23.1685C51.3293 23.3327 50.7673 23.4313 50.0422 23.4313V25.3202ZM52.4304 24.9325C53.1231 24.6691 53.717 24.279 54.1513 23.7304L52.6703 22.558C52.4929 22.7821 52.2094 22.9957 51.759 23.1669L52.4304 24.9325ZM54.1513 23.7304C54.5878 23.179 54.8146 22.535 54.826 21.8313L52.9374 21.8008C52.9326 22.0952 52.8455 22.3366 52.6703 22.558L54.1513 23.7304ZM54.826 21.7998C54.8145 21.1317 54.6006 20.5174 54.1653 20.0075L52.7287 21.2339C52.8569 21.3841 52.9328 21.5667 52.9374 21.8323L54.826 21.7998ZM54.1726 20.0161C53.7584 19.5191 53.173 19.1536 52.502 18.8779L51.784 20.625C52.2882 20.8322 52.5722 21.0462 52.7215 21.2254L54.1726 20.0161ZM52.5165 18.884C51.8675 18.6045 51.0685 18.3599 50.135 18.1432L49.7079 19.9832C50.5774 20.1851 51.2594 20.3992 51.7695 20.6189L52.5165 18.884ZM50.1363 18.1435L47.5525 17.5398L47.1228 19.3792L49.7066 19.9829L50.1363 18.1435ZM47.5487 17.539C45.5127 17.072 43.9862 16.3351 42.9061 15.3751L41.6512 16.7869C43.0343 18.0162 44.8804 18.865 47.1265 19.3801L47.5487 17.539ZM42.9087 15.3774C41.9065 14.48 41.3808 13.2635 41.3879 11.6177L39.499 11.6096C39.49 13.7147 40.1878 15.4765 41.6487 16.7846L42.9087 15.3774ZM41.3879 11.6087C41.3808 10.2626 41.7384 9.12102 42.4413 8.14502L40.9086 7.04105C39.9535 8.36714 39.49 9.90595 39.499 11.6186L41.3879 11.6087ZM42.4413 8.14502C43.1597 7.14766 44.1653 6.35014 45.4961 5.76517L44.736 4.03596C43.1369 4.73888 41.8484 5.73633 40.9086 7.04105L42.4413 8.14502ZM45.4961 5.76517C46.8225 5.18216 48.3598 4.8791 50.1267 4.8791V2.99021C48.1426 2.99021 46.3396 3.3311 44.736 4.03596L45.4961 5.76517ZM50.1267 4.8791C51.9367 4.8791 53.4578 5.18713 54.7165 5.76973L55.5099 4.05555C53.9514 3.33417 52.1481 2.99021 50.1267 2.99021V4.8791ZM54.7224 5.77243C55.9969 6.35178 56.9517 7.14879 57.6244 8.15439L59.1944 7.10413C58.3055 5.77545 57.0628 4.76139 55.504 4.05285L54.7224 5.77243ZM57.6244 8.15439C58.2934 9.15452 58.6459 10.324 58.6603 11.696L60.5491 11.6762C60.5312 9.97333 60.0869 8.43828 59.1944 7.10413L57.6244 8.15439ZM59.6047 10.7416H53.8817V12.6305H59.6047V10.7416ZM65.0012 29H64.0568V29.9444H65.0012V29ZM65.0012 4.27273V3.32828H64.0568V4.27273H65.0012ZM70.9778 4.27273H71.9222V3.32828H70.9778V4.27273ZM70.9778 14.1974H70.0333V15.1419H70.9778V14.1974ZM80.7214 14.1974V15.1419H81.6658V14.1974H80.7214ZM80.7214 4.27273V3.32828H79.7769V4.27273H80.7214ZM86.6859 4.27273H87.6303V3.32828H86.6859V4.27273ZM86.6859 29V29.9444H87.6303V29H86.6859ZM80.7214 29H79.7769V29.9444H80.7214V29ZM80.7214 19.0632H81.6658V18.1188H80.7214V19.0632ZM70.9778 19.0632V18.1188H70.0333V19.0632H70.9778ZM70.9778 29V29.9444H71.9222V29H70.9778ZM65.9457 29V4.27273H64.0568V29H65.9457ZM65.0012 5.21717H70.9778V3.32828H65.0012V5.21717ZM70.0333 4.27273V14.1974H71.9222V4.27273H70.0333ZM70.9778 15.1419H80.7214V13.253H70.9778V15.1419ZM81.6658 14.1974V4.27273H79.7769V14.1974H81.6658ZM80.7214 5.21717H86.6859V3.32828H80.7214V5.21717ZM85.7414 4.27273V29H87.6303V4.27273H85.7414ZM86.6859 28.0556H80.7214V29.9444H86.6859V28.0556ZM81.6658 29V19.0632H79.7769V29H81.6658ZM80.7214 18.1188H70.9778V20.0077H80.7214V18.1188ZM70.0333 19.0632V29H71.9222V19.0632H70.0333ZM70.9778 28.0556H65.0012V29.9444H70.9778V28.0556Z" fill="#382525"/>
<path d="M113.011 29H103.871V4.27273H112.999C115.519 4.27273 117.688 4.76776 119.507 5.75781C121.334 6.73982 122.743 8.15649 123.733 10.0078C124.723 11.8511 125.218 14.0566 125.218 16.6243C125.218 19.2 124.723 21.4136 123.733 23.2649C122.751 25.1162 121.346 26.5369 119.519 27.527C117.692 28.509 115.523 29 113.011 29ZM109.848 23.9048H112.782C114.166 23.9048 115.338 23.6714 116.295 23.2045C117.261 22.7296 117.99 21.9609 118.481 20.8984C118.98 19.8279 119.229 18.4032 119.229 16.6243C119.229 14.8454 118.98 13.4287 118.481 12.3743C117.982 11.3118 117.245 10.5471 116.271 10.0803C115.305 9.60535 114.114 9.3679 112.697 9.3679H109.848V23.9048ZM136.724 4.27273V29H130.747V4.27273H136.724ZM155.882 11.6861C155.801 10.8007 155.443 10.1125 154.807 9.62145C154.179 9.1224 153.282 8.87287 152.115 8.87287C151.342 8.87287 150.698 8.97348 150.183 9.17471C149.668 9.37595 149.281 9.65365 149.024 10.0078C148.766 10.3539 148.633 10.7524 148.625 11.2031C148.609 11.5734 148.682 11.8994 148.843 12.1811C149.012 12.4628 149.253 12.7124 149.567 12.9297C149.889 13.139 150.275 13.3241 150.726 13.4851C151.177 13.6461 151.684 13.7869 152.247 13.9077L154.372 14.3906C155.596 14.6562 156.675 15.0104 157.608 15.4531C158.55 15.8958 159.339 16.4231 159.975 17.0348C160.619 17.6465 161.106 18.3509 161.436 19.1477C161.766 19.9446 161.935 20.8381 161.943 21.8281C161.935 23.3897 161.54 24.7299 160.76 25.8487C159.979 26.9676 158.856 27.8248 157.391 28.4205C155.934 29.0161 154.175 29.3139 152.115 29.3139C150.046 29.3139 148.243 29.004 146.706 28.3842C145.168 27.7644 143.973 26.8227 143.12 25.5589C142.266 24.2952 141.828 22.6974 141.804 20.7656H147.527C147.575 21.5625 147.788 22.2266 148.166 22.7578C148.545 23.2891 149.064 23.6915 149.724 23.9652C150.392 24.2389 151.165 24.3757 152.042 24.3757C152.847 24.3757 153.531 24.267 154.095 24.0497C154.666 23.8324 155.105 23.5305 155.411 23.1442C155.717 22.7578 155.874 22.3151 155.882 21.8161C155.874 21.3492 155.729 20.9508 155.447 20.6207C155.165 20.2827 154.731 19.9929 154.143 19.7514C153.563 19.5019 152.823 19.2725 151.921 19.0632L149.338 18.4595C147.197 17.9685 145.51 17.1757 144.279 16.081C143.047 14.9782 142.435 13.4891 142.443 11.6136C142.435 10.0843 142.846 8.74408 143.675 7.59304C144.504 6.442 145.651 5.54451 147.116 4.90057C148.581 4.25663 150.251 3.93466 152.127 3.93466C154.042 3.93466 155.705 4.26065 157.113 4.91264C158.53 5.55658 159.629 6.46212 160.409 7.62926C161.19 8.7964 161.589 10.1487 161.605 11.6861H155.882ZM189.447 13.2315H183.41C183.329 12.6117 183.164 12.0523 182.915 11.5533C182.665 11.0542 182.335 10.6276 181.925 10.2734C181.514 9.91927 181.027 9.64962 180.464 9.46449C179.908 9.27131 179.292 9.17471 178.616 9.17471C177.417 9.17471 176.383 9.46851 175.513 10.0561C174.652 10.6437 173.988 11.4929 173.521 12.6037C173.062 13.7145 172.833 15.0587 172.833 16.6364C172.833 18.2784 173.066 19.6548 173.533 20.7656C174.008 21.8684 174.672 22.7015 175.525 23.2649C176.387 23.8203 177.405 24.098 178.58 24.098C179.24 24.098 179.84 24.0135 180.379 23.8445C180.926 23.6754 181.405 23.4299 181.816 23.108C182.234 22.7779 182.576 22.3795 182.842 21.9126C183.116 21.4377 183.305 20.9025 183.41 20.3068L189.447 20.343C189.342 21.4377 189.024 22.5163 188.493 23.5788C187.969 24.6413 187.249 25.6113 186.331 26.4886C185.414 27.358 184.295 28.0502 182.975 28.5653C181.663 29.0805 180.158 29.3381 178.459 29.3381C176.222 29.3381 174.217 28.8471 172.447 27.8651C170.684 26.875 169.291 25.4342 168.269 23.5426C167.247 21.651 166.736 19.349 166.736 16.6364C166.736 13.9157 167.255 11.6096 168.293 9.71804C169.331 7.82647 170.736 6.38968 172.507 5.40767C174.278 4.42566 176.262 3.93466 178.459 3.93466C179.956 3.93466 181.341 4.14394 182.613 4.5625C183.884 4.97301 185.003 5.5767 185.969 6.37358C186.935 7.1624 187.72 8.13234 188.324 9.28338C188.927 10.4344 189.302 11.7505 189.447 13.2315ZM218.245 16.6364C218.245 19.357 217.722 21.6631 216.676 23.5547C215.629 25.4463 214.213 26.883 212.426 27.8651C210.647 28.8471 208.651 29.3381 206.437 29.3381C204.215 29.3381 202.215 28.843 200.436 27.853C198.657 26.8629 197.245 25.4261 196.198 23.5426C195.16 21.651 194.641 19.349 194.641 16.6364C194.641 13.9157 195.16 11.6096 196.198 9.71804C197.245 7.82647 198.657 6.38968 200.436 5.40767C202.215 4.42566 204.215 3.93466 206.437 3.93466C208.651 3.93466 210.647 4.42566 212.426 5.40767C214.213 6.38968 215.629 7.82647 216.676 9.71804C217.722 11.6096 218.245 13.9157 218.245 16.6364ZM212.136 16.6364C212.136 15.0265 211.906 13.6662 211.448 12.5554C210.997 11.4446 210.345 10.6035 209.492 10.032C208.647 9.46046 207.628 9.17471 206.437 9.17471C205.254 9.17471 204.236 9.46046 203.382 10.032C202.529 10.6035 201.873 11.4446 201.414 12.5554C200.964 13.6662 200.738 15.0265 200.738 16.6364C200.738 18.2462 200.964 19.6065 201.414 20.7173C201.873 21.8281 202.529 22.6693 203.382 23.2408C204.236 23.8123 205.254 24.098 206.437 24.098C207.628 24.098 208.647 23.8123 209.492 23.2408C210.345 22.6693 210.997 21.8281 211.448 20.7173C211.906 19.6065 212.136 18.2462 212.136 16.6364ZM227.928 4.27273L233.458 22.3835H233.663L239.193 4.27273H245.882L237.539 29H229.582L221.239 4.27273H227.928ZM250.584 29V4.27273H267.826V9.12642H256.561V14.1974H266.944V19.0632H256.561V24.1463H267.826V29H250.584ZM273.608 29V4.27273H283.823C285.674 4.27273 287.272 4.60677 288.616 5.27486C289.969 5.9349 291.011 6.88471 291.743 8.12429C292.476 9.35582 292.842 10.8168 292.842 12.5071C292.842 14.2216 292.468 15.6785 291.719 16.8778C290.971 18.0691 289.908 18.9787 288.532 19.6065C287.155 20.2263 285.525 20.5362 283.642 20.5362H277.182V15.8274H282.531C283.433 15.8274 284.185 15.7107 284.789 15.4773C285.401 15.2358 285.863 14.8736 286.177 14.3906C286.491 13.8996 286.648 13.2718 286.648 12.5071C286.648 11.7424 286.491 11.1106 286.177 10.6115C285.863 10.1044 285.401 9.72609 284.789 9.47656C284.177 9.21899 283.425 9.0902 282.531 9.0902H279.585V29H273.608ZM287.53 17.6989L293.687 29H287.167L281.13 17.6989H287.53ZM295.833 4.27273H302.51L307.738 14.62H307.955L313.183 4.27273H319.86L310.817 20.7415V29H304.876V20.7415L295.833 4.27273Z" fill="#382525"/>
</svg>
