<svg width="1788" height="662" viewBox="0 0 1788 662" fill="none" xmlns="http://www.w3.org/2000/svg">
<g clip-path="url(#clip0_63_349)">
<rect width="1787.13" height="642.93" rx="32.6914" fill="#222229"/>
<rect width="1787.13" height="662" rx="43.5885" fill="#222229"/>
<ellipse cx="910.5" cy="-161" rx="765.5" ry="445" fill="#303236"/>
<path d="M1676 802C1676 1047.77 1333.27 1247 910.5 1247C487.726 1247 145 1047.77 145 802C145 556.233 487.726 357 910.5 357C1333.27 357 1676 556.233 1676 802Z" fill="#303236"/>
<path d="M336.958 343.5C336.958 457.547 177.805 550 -18.5209 550C-214.847 550 -374 457.547 -374 343.5C-374 229.453 -214.847 137 -18.5209 137C177.805 137 336.958 229.453 336.958 343.5Z" fill="#303236"/>
<path d="M2157.96 343.5C2157.96 457.547 1998.8 550 1802.48 550C1606.15 550 1447 457.547 1447 343.5C1447 229.453 1606.15 137 1802.48 137C1998.8 137 2157.96 229.453 2157.96 343.5Z" fill="#303236"/>
</g>
<defs>
<clipPath id="clip0_63_349">
<rect width="1787.13" height="662" rx="43.5885" fill="white"/>
</clipPath>
</defs>
</svg>
