<svg width="35" height="35" viewBox="0 0 35 35" fill="none" xmlns="http://www.w3.org/2000/svg">
<path d="M27.2871 11.1721L29.2685 9.19075C28.6406 8.47912 28.0127 7.83726 27.3011 7.22331L25.3197 9.23261C23.1569 7.47447 20.436 6.44191 17.4778 6.44191C14.1472 6.44191 10.953 7.765 8.59787 10.1201C6.24276 12.4752 4.91968 15.6694 4.91968 19.0001C4.91968 22.3307 6.24276 25.5249 8.59787 27.88C10.953 30.2351 14.1472 31.5582 17.4778 31.5582C24.4546 31.5582 30.036 25.9349 30.036 19.0001C30.036 16.0419 29.0034 13.321 27.2871 11.1721ZM18.8732 20.3954H16.0825V10.628H18.8732V20.3954ZM21.6639 2.25586H13.2918V5.04656H21.6639V2.25586Z" fill="#262522"/>
</svg>
