<svg width="184" height="24" viewBox="0 0 184 24" fill="none" xmlns="http://www.w3.org/2000/svg">
<g clip-path="url(#clip0_63_117)">
<path d="M12 17.27L18.18 21L16.54 13.97L22 9.24L14.81 8.63L12 2L9.19 8.63L2 9.24L7.46 13.97L5.82 21L12 17.27Z" fill="#0E0E2C"/>
</g>
<g clip-path="url(#clip1_63_117)">
<path d="M52 17.27L58.18 21L56.54 13.97L62 9.24L54.81 8.63L52 2L49.19 8.63L42 9.24L47.46 13.97L45.82 21L52 17.27Z" fill="#0E0E2C"/>
</g>
<g clip-path="url(#clip2_63_117)">
<path d="M92 17.27L98.18 21L96.54 13.97L102 9.24L94.81 8.63L92 2L89.19 8.63L82 9.24L87.46 13.97L85.82 21L92 17.27Z" fill="#0E0E2C"/>
</g>
<g clip-path="url(#clip3_63_117)">
<path d="M132 17.27L138.18 21L136.54 13.97L142 9.24L134.81 8.63L132 2L129.19 8.63L122 9.24L127.46 13.97L125.82 21L132 17.27Z" fill="#0E0E2C"/>
</g>
<g clip-path="url(#clip4_63_117)">
<path d="M172 17.27L178.18 21L176.54 13.97L182 9.24L174.81 8.63L172 2L169.19 8.63L162 9.24L167.46 13.97L165.82 21L172 17.27Z" fill="#0E0E2C"/>
</g>
<defs>
<clipPath id="clip0_63_117">
<rect width="24" height="24" fill="white"/>
</clipPath>
<clipPath id="clip1_63_117">
<rect width="24" height="24" fill="white" transform="translate(40)"/>
</clipPath>
<clipPath id="clip2_63_117">
<rect width="24" height="24" fill="white" transform="translate(80)"/>
</clipPath>
<clipPath id="clip3_63_117">
<rect width="24" height="24" fill="white" transform="translate(120)"/>
</clipPath>
<clipPath id="clip4_63_117">
<rect width="24" height="24" fill="white" transform="translate(160)"/>
</clipPath>
</defs>
</svg>
