<svg width="34" height="35" viewBox="0 0 34 35" fill="none" xmlns="http://www.w3.org/2000/svg">
<path fill-rule="evenodd" clip-rule="evenodd" d="M17.059 6.44189C17.3762 6.44189 17.6805 6.56769 17.9047 6.79161C18.129 7.01553 18.2551 7.31924 18.2551 7.63591V9.29161C20.993 9.58616 23.5253 10.8807 25.3651 12.9264C27.2049 14.972 28.2223 17.6244 28.2218 20.3736C28.2218 21.007 27.9698 21.6144 27.5212 22.0622C27.0726 22.5101 26.4642 22.7617 25.8298 22.7617H8.28827C7.65386 22.7617 7.04544 22.5101 6.59685 22.0622C6.14826 21.6144 5.89624 21.007 5.89624 20.3736C5.89612 17.6247 6.91374 14.9727 8.75349 12.9274C10.5932 10.882 13.1253 9.58773 15.863 9.2932V7.6375C15.8628 7.48057 15.8936 7.32513 15.9536 7.18008C16.0136 7.03503 16.1017 6.90322 16.2128 6.79218C16.3238 6.68113 16.4558 6.59304 16.601 6.53294C16.7462 6.47283 16.9018 6.44189 17.059 6.44189ZM7.14009 24.9841C6.82289 24.9841 6.51868 25.1099 6.29439 25.3338C6.07009 25.5578 5.94408 25.8615 5.94408 26.1781C5.94408 26.4948 6.07009 26.7985 6.29439 27.0224C6.51868 27.2463 6.82289 27.3721 7.14009 27.3721H26.978C27.2952 27.3721 27.5994 27.2463 27.8237 27.0224C28.048 26.7985 28.174 26.4948 28.174 26.1781C28.174 25.8615 28.048 25.5578 27.8237 25.3338C27.5994 25.1099 27.2952 24.9841 26.978 24.9841H7.14009Z" fill="#262522"/>
</svg>
