<svg width="250" height="68" viewBox="0 0 323 68" fill="none" xmlns="http://www.w3.org/2000/svg">
<rect x="1.58159" y="1.35051" width="320.512" height="65.5815" rx="32.7907" stroke="#262522" stroke-width="1.39535"/>
<path d="M41.8451 37.0752C41.8451 36.8299 41.8069 36.6119 41.7306 36.4211C41.6597 36.2303 41.5317 36.0559 41.3463 35.8978C41.161 35.7398 40.8994 35.5871 40.5615 35.44C40.229 35.2874 39.8038 35.132 39.286 34.974C38.7192 34.7995 38.1959 34.606 37.7162 34.3935C37.242 34.1754 36.8278 33.9247 36.4735 33.6413C36.1192 33.3524 35.844 33.0226 35.6478 32.652C35.4515 32.2759 35.3534 31.8426 35.3534 31.352C35.3534 30.8669 35.4543 30.4254 35.6559 30.0276C35.863 29.6297 36.1547 29.2863 36.5307 28.9974C36.9123 28.7031 37.362 28.4769 37.8798 28.3188C38.3976 28.1553 38.9699 28.0735 39.5967 28.0735C40.4797 28.0735 41.2401 28.237 41.8778 28.5641C42.5209 28.8911 43.0142 29.3299 43.3576 29.8804C43.7064 30.4309 43.8809 31.0386 43.8809 31.7036H41.8451C41.8451 31.3112 41.7606 30.9651 41.5916 30.6653C41.4281 30.36 41.1774 30.1202 40.8394 29.9458C40.5069 29.7714 40.0845 29.6842 39.5722 29.6842C39.0871 29.6842 38.6837 29.7577 38.3621 29.9049C38.0406 30.0521 37.8007 30.251 37.6427 30.5018C37.4846 30.7525 37.4056 31.0359 37.4056 31.352C37.4056 31.5755 37.4573 31.7799 37.5609 31.9652C37.6645 32.1451 37.8225 32.3141 38.0351 32.4721C38.2477 32.6248 38.5148 32.7692 38.8363 32.9055C39.1579 33.0417 39.5367 33.1725 39.9728 33.2979C40.6323 33.4941 41.2073 33.7121 41.6979 33.952C42.1885 34.1863 42.5972 34.4534 42.9243 34.7532C43.2513 35.053 43.4966 35.3937 43.6601 35.7752C43.8236 36.1513 43.9054 36.5792 43.9054 37.0588C43.9054 37.5603 43.8046 38.0127 43.6029 38.416C43.4012 38.8139 43.1123 39.1546 42.7362 39.438C42.3656 39.716 41.9187 39.9313 41.3954 40.0839C40.8776 40.231 40.2998 40.3046 39.6621 40.3046C39.0898 40.3046 38.5257 40.2283 37.9697 40.0757C37.4192 39.9231 36.9177 39.6914 36.4653 39.3808C36.0129 39.0646 35.6532 38.6722 35.3861 38.2034C35.119 37.7292 34.9855 37.176 34.9855 36.5437H37.0377C37.0377 36.9307 37.1031 37.2605 37.2339 37.533C37.3701 37.8055 37.5582 38.029 37.798 38.2034C38.0378 38.3724 38.3158 38.4978 38.6319 38.5795C38.9535 38.6613 39.2969 38.7022 39.6621 38.7022C40.1418 38.7022 40.5424 38.634 40.864 38.4978C41.191 38.3615 41.4363 38.1707 41.5998 37.9255C41.7633 37.6802 41.8451 37.3967 41.8451 37.0752ZM53.7531 33.208V34.835H47.4331V33.208H53.7531ZM47.94 28.237V40.1411H45.8879V28.237H47.94ZM55.331 28.237V40.1411H53.287V28.237H55.331ZM62.7259 29.8232L59.1694 40.1411H57.0192L61.4996 28.237H62.8731L62.7259 29.8232ZM65.702 40.1411L62.1373 29.8232L61.9819 28.237H63.3637L67.8604 40.1411H65.702ZM65.5303 35.7261V37.3531H59.055V35.7261H65.5303ZM69.3605 28.237H73.5711C74.4759 28.237 75.2471 28.3733 75.8848 28.6458C76.5226 28.9184 77.0104 29.3217 77.3483 29.8559C77.6917 30.3846 77.8634 31.0386 77.8634 31.8181C77.8634 32.4122 77.7544 32.9354 77.5364 33.3878C77.3184 33.8402 77.0104 34.2218 76.6125 34.5325C76.2146 34.8377 75.7404 35.0748 75.1899 35.2438L74.5685 35.5463H70.7831L70.7667 33.9193H73.6038C74.0943 33.9193 74.5031 33.8321 74.8302 33.6576C75.1572 33.4832 75.4025 33.2461 75.566 32.9463C75.735 32.6411 75.8194 32.2977 75.8194 31.9162C75.8194 31.5019 75.7377 31.1422 75.5742 30.837C75.4161 30.5263 75.1708 30.2892 74.8383 30.1257C74.5059 29.9567 74.0834 29.8722 73.5711 29.8722H71.4126V40.1411H69.3605V28.237ZM76.1547 40.1411L73.3585 34.7941L75.5088 34.7859L78.3458 40.0348V40.1411H76.1547ZM87.8664 38.5141V40.1411H81.5465V38.5141H87.8664ZM82.127 28.237V40.1411H80.0748V28.237H82.127ZM87.0407 33.208V34.8104H81.5465V33.208H87.0407ZM87.8256 28.237V29.8722H81.5465V28.237H87.8256Z" fill="#262522"/>
<path d="M176.841 46.6998V36.9803H180.095L180.582 33.2019H176.841V30.7895C176.841 29.6956 177.144 28.95 178.713 28.95L180.714 28.9491V25.5697C180.368 25.5237 179.18 25.4208 177.798 25.4208C174.913 25.4208 172.939 27.1816 172.939 30.4154V33.2019H169.676V36.9803H172.939V46.6998H160.93C160.16 46.6998 159.535 46.0751 159.535 45.3044V22.9788C159.535 22.2082 160.16 21.5835 160.93 21.5835H183.256C184.027 21.5835 184.651 22.2082 184.651 22.9788V45.3044C184.651 46.0751 184.027 46.6998 183.256 46.6998H176.841Z" fill="#262522"/>
<path d="M223.76 20.189C225.331 20.1916 226.127 20.1999 226.814 20.2203L227.085 20.2292C227.398 20.2403 227.707 20.2543 228.079 20.2717C229.563 20.3403 230.576 20.5752 231.466 20.9205C232.386 21.2752 233.162 21.7543 233.938 22.5299C234.712 23.3054 235.191 24.0845 235.547 25.0019C235.891 25.8903 236.126 26.9043 236.196 28.3892C236.213 28.7613 236.226 29.0699 236.237 29.3828L236.246 29.6536C236.266 30.3412 236.276 31.1371 236.279 32.7074L236.28 33.7478C236.28 33.8749 236.28 34.0061 236.28 34.1414L236.28 34.5351L236.279 35.5756C236.276 37.1459 236.268 37.9418 236.247 38.6293L236.239 38.9001C236.228 39.2131 236.214 39.5218 236.196 39.8938C236.127 41.3787 235.891 42.3915 235.547 43.281C235.193 44.2008 234.712 44.9776 233.938 45.7531C233.162 46.5275 232.382 47.0066 231.466 47.3624C230.576 47.7066 229.563 47.9415 228.079 48.0112C227.707 48.0278 227.398 48.0414 227.085 48.0522L226.814 48.061C226.127 48.0816 225.331 48.0908 223.76 48.0938L222.72 48.0949C222.593 48.0949 222.462 48.0949 222.326 48.0949H221.933L220.892 48.094C219.322 48.0915 218.526 48.0831 217.838 48.0626L217.568 48.0538C217.255 48.0426 216.946 48.0287 216.574 48.0112C215.089 47.9427 214.077 47.7066 213.187 47.3624C212.268 47.0078 211.49 46.5275 210.715 45.7531C209.939 44.9776 209.461 44.1973 209.105 43.281C208.76 42.3915 208.526 41.3787 208.457 39.8938C208.44 39.5218 208.426 39.2131 208.415 38.9001L208.407 38.6293C208.386 37.9418 208.377 37.1459 208.374 35.5756L208.374 32.7074C208.376 31.1371 208.385 30.3412 208.405 29.6536L208.414 29.3828C208.425 29.0699 208.439 28.7613 208.457 28.3892C208.525 26.9031 208.76 25.8915 209.105 25.0019C209.46 24.0833 209.939 23.3054 210.715 22.5299C211.49 21.7543 212.269 21.2764 213.187 20.9205C214.076 20.5752 215.088 20.3415 216.574 20.2717C216.946 20.2551 217.255 20.2416 217.568 20.2307L217.838 20.2219C218.526 20.2015 219.322 20.1922 220.892 20.1891L223.76 20.189ZM222.326 27.1647C218.471 27.1647 215.35 30.2897 215.35 34.1414C215.35 37.9967 218.474 41.1182 222.326 41.1182C226.182 41.1182 229.303 37.9933 229.303 34.1414C229.303 30.2863 226.178 27.1647 222.326 27.1647ZM222.326 29.9554C224.638 29.9554 226.512 31.8289 226.512 34.1414C226.512 36.4534 224.639 38.3275 222.326 38.3275C220.014 38.3275 218.14 36.4541 218.14 34.1414C218.14 31.8295 220.014 29.9554 222.326 29.9554ZM229.652 25.0717C228.69 25.0717 227.908 25.853 227.908 26.8147C227.908 27.7765 228.689 28.5589 229.652 28.5589C230.614 28.5589 231.396 27.7777 231.396 26.8147C231.396 25.853 230.612 25.0705 229.652 25.0717Z" fill="#262522"/>
<path d="M272.899 22.979C273.644 22.9831 275.508 23.0011 277.49 23.0805L278.192 23.1111C280.187 23.2056 282.18 23.3669 283.168 23.6425C284.487 24.0129 285.523 25.0937 285.873 26.4636C286.431 28.6391 286.501 32.8852 286.509 33.9127L286.51 34.1256V34.1405C286.51 34.1405 286.51 34.1457 286.51 34.1556L286.509 34.3685C286.501 35.3961 286.431 39.6421 285.873 41.8176C285.518 43.1926 284.482 44.2734 283.168 44.6387C282.18 44.9143 280.187 45.0756 278.192 45.1701L277.49 45.2007C275.508 45.28 273.644 45.298 272.899 45.3022L272.571 45.3033H272.557C272.557 45.3033 272.552 45.3033 272.542 45.3033L272.216 45.3022C270.638 45.2936 264.043 45.2223 261.946 44.6387C260.627 44.2683 259.591 43.1876 259.241 41.8176C258.683 39.6421 258.613 35.3961 258.605 34.3685V33.9127C258.613 32.8852 258.683 28.6391 259.241 26.4636C259.596 25.0886 260.632 24.0078 261.946 23.6425C264.043 23.0589 270.638 22.9877 272.216 22.979H272.899ZM269.766 29.2569V39.0243L278.138 34.1405L269.766 29.2569Z" fill="#262522"/>
</svg>
