<svg width="1000" height="352" viewBox="0 0 1676 352" fill="none" xmlns="http://www.w3.org/2000/svg">
<rect width="1676" height="352" rx="11.7631" fill="#D7E0D8"/>
<rect x="2.20557" y="2.20557" width="1671.59" height="347.589" rx="9.55749" stroke="#828282" stroke-opacity="0.7" stroke-width="4.41115" stroke-dasharray="8.82 8.82"/>
<rect x="686.617" y="139.092" width="301.631" height="73.5192" rx="36.7596" fill="#4662C7"/>
<circle cx="738.08" cy="175.852" r="20.5854" fill="#2E5834" stroke="#EEEEEE" stroke-width="2.94077"/>
<path d="M738.08 167.221V184.482M729.45 175.852H746.711" stroke="#EEEEEE" stroke-width="4.41115" stroke-linecap="round"/>
<path d="M774.81 186.852L784.133 166.266H787.044L796.396 186.852H793.308L784.985 167.913H786.162L777.839 186.852H774.81ZM778.78 181.705L779.574 179.353H791.161L792.014 181.705H778.78ZM805.351 187.028C803.842 187.028 802.489 186.695 801.293 186.028C800.117 185.362 799.186 184.431 798.499 183.235C797.813 182.039 797.47 180.647 797.47 179.059C797.47 177.471 797.813 176.089 798.499 174.912C799.186 173.716 800.117 172.785 801.293 172.119C802.489 171.452 803.842 171.119 805.351 171.119C806.665 171.119 807.851 171.413 808.91 172.001C809.968 172.589 810.811 173.471 811.439 174.648C812.086 175.824 812.409 177.294 812.409 179.059C812.409 180.823 812.096 182.294 811.468 183.47C810.86 184.646 810.027 185.538 808.969 186.146C807.91 186.734 806.704 187.028 805.351 187.028ZM805.587 184.558C806.567 184.558 807.449 184.333 808.233 183.882C809.037 183.431 809.665 182.794 810.115 181.97C810.586 181.127 810.821 180.157 810.821 179.059C810.821 177.941 810.586 176.981 810.115 176.177C809.665 175.353 809.037 174.716 808.233 174.265C807.449 173.814 806.567 173.589 805.587 173.589C804.587 173.589 803.695 173.814 802.911 174.265C802.126 174.716 801.499 175.353 801.029 176.177C800.558 176.981 800.323 177.941 800.323 179.059C800.323 180.157 800.558 181.127 801.029 181.97C801.499 182.794 802.126 183.431 802.911 183.882C803.695 184.333 804.587 184.558 805.587 184.558ZM810.909 186.852V182.647L811.086 179.029L810.792 175.412V165.031H813.615V186.852H810.909ZM825.397 187.028C823.887 187.028 822.535 186.695 821.339 186.028C820.162 185.362 819.231 184.431 818.545 183.235C817.859 182.039 817.516 180.647 817.516 179.059C817.516 177.471 817.859 176.089 818.545 174.912C819.231 173.716 820.162 172.785 821.339 172.119C822.535 171.452 823.887 171.119 825.397 171.119C826.71 171.119 827.897 171.413 828.955 172.001C830.014 172.589 830.857 173.471 831.484 174.648C832.131 175.824 832.455 177.294 832.455 179.059C832.455 180.823 832.141 182.294 831.514 183.47C830.906 184.646 830.073 185.538 829.014 186.146C827.955 186.734 826.75 187.028 825.397 187.028ZM825.632 184.558C826.612 184.558 827.495 184.333 828.279 183.882C829.083 183.431 829.71 182.794 830.161 181.97C830.631 181.127 830.867 180.157 830.867 179.059C830.867 177.941 830.631 176.981 830.161 176.177C829.71 175.353 829.083 174.716 828.279 174.265C827.495 173.814 826.612 173.589 825.632 173.589C824.632 173.589 823.74 173.814 822.956 174.265C822.172 174.716 821.545 175.353 821.074 176.177C820.603 176.981 820.368 177.941 820.368 179.059C820.368 180.157 820.603 181.127 821.074 181.97C821.545 182.794 822.172 183.431 822.956 183.882C823.74 184.333 824.632 184.558 825.632 184.558ZM830.955 186.852V182.647L831.131 179.029L830.837 175.412V165.031H833.66V186.852H830.955ZM856.575 186.852V183.558L856.428 182.941V177.324C856.428 176.128 856.075 175.206 855.369 174.559C854.683 173.893 853.644 173.56 852.252 173.56C851.33 173.56 850.429 173.716 849.546 174.03C848.664 174.324 847.919 174.726 847.311 175.236L846.135 173.118C846.939 172.471 847.9 171.981 849.017 171.648C850.154 171.295 851.34 171.119 852.575 171.119C854.712 171.119 856.359 171.638 857.516 172.677C858.673 173.716 859.251 175.304 859.251 177.441V186.852H856.575ZM851.458 187.028C850.301 187.028 849.282 186.832 848.399 186.44C847.537 186.048 846.87 185.509 846.4 184.823C845.929 184.117 845.694 183.323 845.694 182.441C845.694 181.598 845.89 180.833 846.282 180.147C846.694 179.461 847.351 178.912 848.252 178.5C849.174 178.088 850.409 177.882 851.958 177.882H856.898V179.912H852.075C850.664 179.912 849.713 180.147 849.223 180.617C848.733 181.088 848.488 181.656 848.488 182.323C848.488 183.088 848.792 183.705 849.399 184.176C850.007 184.627 850.85 184.852 851.928 184.852C852.987 184.852 853.908 184.617 854.693 184.146C855.496 183.676 856.075 182.99 856.428 182.088L856.986 184.029C856.614 184.95 855.957 185.685 855.016 186.234C854.075 186.764 852.889 187.028 851.458 187.028ZM880.636 187.028C879.343 187.028 878.156 186.734 877.078 186.146C876.019 185.538 875.167 184.646 874.52 183.47C873.892 182.294 873.579 180.823 873.579 179.059C873.579 177.294 873.882 175.824 874.49 174.648C875.118 173.471 875.961 172.589 877.019 172.001C878.098 171.413 879.303 171.119 880.636 171.119C882.166 171.119 883.518 171.452 884.695 172.119C885.871 172.785 886.802 173.716 887.488 174.912C888.175 176.089 888.518 177.471 888.518 179.059C888.518 180.647 888.175 182.039 887.488 183.235C886.802 184.431 885.871 185.362 884.695 186.028C883.518 186.695 882.166 187.028 880.636 187.028ZM872.373 192.557V171.266H875.078V175.471L874.902 179.088L875.196 182.705V192.557H872.373ZM880.401 184.558C881.401 184.558 882.293 184.333 883.077 183.882C883.881 183.431 884.508 182.794 884.959 181.97C885.43 181.127 885.665 180.157 885.665 179.059C885.665 177.941 885.43 176.981 884.959 176.177C884.508 175.353 883.881 174.716 883.077 174.265C882.293 173.814 881.401 173.589 880.401 173.589C879.421 173.589 878.529 173.814 877.725 174.265C876.941 174.716 876.314 175.353 875.843 176.177C875.392 176.981 875.167 177.941 875.167 179.059C875.167 180.157 875.392 181.127 875.843 181.97C876.314 182.794 876.941 183.431 877.725 183.882C878.529 184.333 879.421 184.558 880.401 184.558ZM900.741 171.119C902.015 171.119 903.133 171.364 904.093 171.854C905.073 172.344 905.838 173.089 906.387 174.089C906.936 175.089 907.21 176.353 907.21 177.882V186.852H904.387V178.206C904.387 176.696 904.015 175.559 903.27 174.795C902.544 174.03 901.515 173.648 900.182 173.648C899.182 173.648 898.31 173.844 897.565 174.236C896.82 174.628 896.241 175.206 895.83 175.971C895.438 176.736 895.241 177.686 895.241 178.824V186.852H892.418V165.031H895.241V175.471L894.683 174.354C895.192 173.334 895.977 172.54 897.035 171.972C898.094 171.403 899.329 171.119 900.741 171.119ZM919.111 187.028C917.542 187.028 916.15 186.685 914.935 185.999C913.719 185.313 912.759 184.372 912.053 183.176C911.347 181.96 910.994 180.588 910.994 179.059C910.994 177.51 911.347 176.138 912.053 174.942C912.759 173.746 913.719 172.815 914.935 172.148C916.15 171.462 917.542 171.119 919.111 171.119C920.659 171.119 922.042 171.462 923.257 172.148C924.492 172.815 925.453 173.746 926.139 174.942C926.845 176.118 927.198 177.49 927.198 179.059C927.198 180.608 926.845 181.98 926.139 183.176C925.453 184.372 924.492 185.313 923.257 185.999C922.042 186.685 920.659 187.028 919.111 187.028ZM919.111 184.558C920.111 184.558 921.003 184.333 921.787 183.882C922.591 183.431 923.218 182.794 923.669 181.97C924.12 181.127 924.345 180.157 924.345 179.059C924.345 177.941 924.12 176.981 923.669 176.177C923.218 175.353 922.591 174.716 921.787 174.265C921.003 173.814 920.111 173.589 919.111 173.589C918.111 173.589 917.219 173.814 916.435 174.265C915.65 174.716 915.023 175.353 914.552 176.177C914.082 176.981 913.847 177.941 913.847 179.059C913.847 180.157 914.082 181.127 914.552 181.97C915.023 182.794 915.65 183.431 916.435 183.882C917.219 184.333 918.111 184.558 919.111 184.558ZM936.454 187.028C934.886 187.028 933.67 186.607 932.808 185.764C931.945 184.921 931.514 183.715 931.514 182.147V167.854H934.337V182.029C934.337 182.872 934.543 183.519 934.954 183.97C935.386 184.421 935.994 184.646 936.778 184.646C937.66 184.646 938.395 184.401 938.983 183.911L939.866 185.94C939.434 186.313 938.915 186.587 938.307 186.764C937.719 186.94 937.101 187.028 936.454 187.028ZM928.867 173.589V171.266H938.807V173.589H928.867ZM949.437 187.028C947.869 187.028 946.477 186.685 945.261 185.999C944.046 185.313 943.085 184.372 942.379 183.176C941.674 181.96 941.321 180.588 941.321 179.059C941.321 177.51 941.674 176.138 942.379 174.942C943.085 173.746 944.046 172.815 945.261 172.148C946.477 171.462 947.869 171.119 949.437 171.119C950.986 171.119 952.368 171.462 953.584 172.148C954.819 172.815 955.78 173.746 956.466 174.942C957.172 176.118 957.524 177.49 957.524 179.059C957.524 180.608 957.172 181.98 956.466 183.176C955.78 184.372 954.819 185.313 953.584 185.999C952.368 186.685 950.986 187.028 949.437 187.028ZM949.437 184.558C950.437 184.558 951.329 184.333 952.113 183.882C952.917 183.431 953.545 182.794 953.995 181.97C954.446 181.127 954.672 180.157 954.672 179.059C954.672 177.941 954.446 176.981 953.995 176.177C953.545 175.353 952.917 174.716 952.113 174.265C951.329 173.814 950.437 173.589 949.437 173.589C948.437 173.589 947.545 173.814 946.761 174.265C945.977 174.716 945.35 175.353 944.879 176.177C944.409 176.981 944.173 177.941 944.173 179.059C944.173 180.157 944.409 181.127 944.879 181.97C945.35 182.794 945.977 183.431 946.761 183.882C947.545 184.333 948.437 184.558 949.437 184.558Z" fill="#EEEEEE"/>
</svg>
